<?xml version="1.0" encoding="UTF-8"?>
<svg width="53px" height="16px" viewBox="0 0 53 16" version="1.1" xmlns="http://www.w3.org/2000/svg" xmlns:xlink="http://www.w3.org/1999/xlink">
    <!-- Generator: Sketch 46.1 (44463) - http://www.bohemiancoding.com/sketch -->
    <title>Group</title>
    <desc>Created with Sketch.</desc>
    <defs></defs>
    <g id="Desktop" stroke="none" stroke-width="1" fill="none" fill-rule="evenodd">
        <g transform="translate(-465.000000, -192.000000)" id="Group" fill="#2D2D2D">
            <g transform="translate(465.000000, 192.000000)">
                <g id="Group-2">
                    <path d="M32.3572498,11.9354999 C29.3459999,14.0707499 25.0207499,15.2204999 21.2977499,15.2204999 C16.0417499,15.2204999 11.3332499,13.3589999 7.77449996,10.1834999 C7.50074996,9.90974995 7.71974996,9.58124995 8.10299996,9.80024995 C11.9354999,11.9902499 16.6987499,13.3042499 21.6262499,13.3042499 C24.9659999,13.3042499 28.5794999,12.6472499 31.9739998,11.2237499 C32.4119998,11.0594999 32.8499998,11.5522499 32.3572498,11.9354999 Z" id="Shape"></path>
                    <path d="M33.6164998,10.5667499 C33.2332498,10.0739999 31.0979998,10.3477499 30.1124999,10.4572499 C29.8387499,10.5119999 29.7839999,10.2382499 30.0577499,10.0739999 C31.7549998,8.92424996 34.6019998,9.25274995 34.9304998,9.63599995 C35.2589998,10.01925 34.8209998,12.7567499 33.2332498,14.0707499 C32.9594998,14.2897499 32.7404998,14.1802499 32.8499998,13.9064999 C33.1784998,12.9757499 33.9997498,11.0047499 33.6164998,10.5667499 Z" id="Shape"></path>
                    <path d="M30.1672498,1.75199999 L30.1672498,0.602249997 C30.1672498,0.437999998 30.2767498,0.328499998 30.4409998,0.328499998 L35.6969998,0.328499998 C35.8612498,0.328499998 36.0254998,0.437999998 36.0254998,0.602249997 L36.0254998,1.58774999 C36.0254998,1.75199999 35.8612498,1.97099999 35.6422498,2.29949999 L32.9047498,6.07724997 C33.8902498,6.07724997 34.9852498,6.18674997 35.9159998,6.67949997 C36.1349998,6.78899997 36.1897498,6.95324997 36.1897498,7.11749996 L36.1897498,8.32199996 C36.1897498,8.48624996 36.0254998,8.70524996 35.8064998,8.59574996 C34.1639998,7.77449996 32.0287498,7.66499996 30.2767498,8.59574996 C30.1124999,8.70524996 29.8934999,8.48624996 29.8934999,8.32199996 L29.8934999,7.17224996 C29.8934999,7.00799997 29.8934999,6.67949997 30.1124999,6.40574997 L33.2879998,2.02574999 L30.5504998,2.02574999 C30.3314998,2.08049999 30.1672498,1.91624999 30.1672498,1.75199999 Z" id="Shape"></path>
                    <path d="M11.0594999,8.86949996 L9.47174995,8.86949996 C9.30749995,8.86949996 9.19799995,8.75999996 9.19799995,8.59574996 L9.19799995,0.656999997 C9.19799995,0.492749998 9.36224995,0.383249998 9.52649995,0.383249998 L11.0047499,0.383249998 C11.1689999,0.383249998 11.2784999,0.492749998 11.2784999,0.656999997 L11.2784999,1.69724999 L11.3332499,1.69724999 C11.7164999,0.711749996 12.4282499,0.218999999 13.4137499,0.218999999 C14.3992499,0.218999999 15.0562499,0.711749996 15.4942499,1.69724999 C15.8774999,0.711749996 16.7534999,0.218999999 17.6842499,0.218999999 C18.3412499,0.218999999 19.1077499,0.492749998 19.5457499,1.09499999 C20.0384999,1.75199999 19.9289999,2.73749999 19.9289999,3.61349998 L19.9289999,8.65049996 C19.9289999,8.81474996 19.7647499,8.92424996 19.6004999,8.92424996 L18.0127499,8.92424996 C17.8484999,8.92424996 17.7389999,8.81474996 17.7389999,8.65049996 L17.7389999,4.43474998 C17.7389999,4.10624998 17.7937499,3.28499998 17.6842499,2.95649999 C17.5747499,2.40899999 17.1914999,2.24474999 16.7534999,2.24474999 C16.3702499,2.24474999 15.9869999,2.51849999 15.8227499,2.90174999 C15.6584999,3.28499998 15.6584999,3.99674998 15.6584999,4.43474998 L15.6584999,8.65049996 C15.6584999,8.81474996 15.5489999,8.92424996 15.3299999,8.92424996 L13.7422499,8.92424996 C13.5779999,8.92424996 13.4684999,8.81474996 13.4684999,8.65049996 L13.4684999,4.37999998 C13.4684999,3.50399998 13.6327499,2.18999999 12.4829999,2.18999999 C11.3332499,2.18999999 11.3879999,3.44924998 11.3879999,4.37999998 L11.3879999,8.59574996 C11.3332499,8.75999996 11.2237499,8.86949996 11.0594999,8.86949996 Z" id="Shape"></path>
                    <path d="M40.5149998,0.218999999 C42.8692498,0.218999999 44.1832498,2.18999999 44.1832498,4.70849998 C44.1832498,7.11749996 42.7597498,9.03374996 40.5149998,9.03374996 C38.2154998,9.03374996 36.9014998,7.06274996 36.9014998,4.59899998 C36.9562498,2.13524999 38.2154998,0.218999999 40.5149998,0.218999999 Z M40.5697498,1.80674999 C39.3652498,1.80674999 39.3104998,3.33974998 39.3104998,4.32524998 C39.3104998,5.31074997 39.3104998,7.39124996 40.5697498,7.39124996 C41.8289998,7.39124996 41.8837498,5.69399997 41.8837498,4.70849998 C41.8837498,4.05149998 41.8289998,3.23024998 41.6647498,2.57324999 C41.3909998,2.02574999 41.0624998,1.80674999 40.5697498,1.80674999 Z" id="Shape"></path>
                    <path d="M47.2492498,8.86949996 L45.6614998,8.86949996 C45.4972498,8.86949996 45.3877498,8.75999996 45.3877498,8.59574996 L45.3877498,0.656999997 C45.3877498,0.492749998 45.5519998,0.383249998 45.7162498,0.383249998 L47.1944998,0.383249998 C47.3587498,0.383249998 47.4682498,0.492749998 47.4682498,0.602249997 L47.4682498,1.80674999 L47.5229998,1.80674999 C47.9609998,0.711749996 48.6179998,0.218999999 49.7129998,0.218999999 C50.4247497,0.218999999 51.1364997,0.492749998 51.5744997,1.14974999 C52.0124997,1.80674999 52.0124997,2.84699999 52.0124997,3.61349998 L52.0124997,8.59574996 C52.0124997,8.75999996 51.8482497,8.86949996 51.6839997,8.86949996 L50.0962498,8.86949996 C49.9319998,8.86949996 49.8224998,8.75999996 49.8224998,8.59574996 L49.8224998,4.27049998 C49.8224998,3.39449998 49.9319998,2.13524999 48.8369998,2.13524999 C48.4537498,2.13524999 48.0704998,2.40899999 47.9062498,2.79224999 C47.6872498,3.28499998 47.6324998,3.77774998 47.6324998,4.27049998 L47.6324998,8.54099996 C47.5777498,8.75999996 47.4134998,8.86949996 47.2492498,8.86949996 Z" id="Shape"></path>
                    <path d="M26.0062499,5.09174997 C26.0062499,5.69399997 26.0062499,6.18674997 25.7324999,6.73424997 C25.4587499,7.17224996 25.0754999,7.44599996 24.6374999,7.44599996 C24.0352499,7.44599996 23.6519999,7.00799997 23.6519999,6.29624997 C23.6519999,4.98224998 24.8564999,4.70849998 26.0062499,4.70849998 L26.0062499,5.09174997 Z M27.5939999,8.86949996 C27.4844999,8.97899996 27.3202499,8.97899996 27.2107499,8.92424996 C26.6632499,8.48624996 26.6084999,8.32199996 26.2799999,7.88399996 C25.4039999,8.75999996 24.8017499,9.03374996 23.6519999,9.03374996 C22.3379999,9.03374996 21.2429999,8.21249996 21.2429999,6.62474997 C21.2429999,5.36549997 21.9547499,4.48949998 22.9402499,4.10624998 C23.8162499,3.72299998 25.0207499,3.66824998 25.9514999,3.55874998 L25.9514999,3.28499998 C25.9514999,2.90174999 26.0062499,2.46374999 25.7324999,2.13524999 C25.5682499,1.86149999 25.1849999,1.75199999 24.8564999,1.75199999 C24.2542499,1.75199999 23.7067499,2.08049999 23.5972499,2.68274999 C23.5424999,2.84699999 23.4877499,2.95649999 23.3234999,2.95649999 L21.7904999,2.79224999 C21.6809999,2.73749999 21.5167499,2.68274999 21.5714999,2.46374999 C21.8999999,0.656999997 23.5972499,0.109499999 25.1302499,0.109499999 C25.8967499,0.109499999 26.9369999,0.328499998 27.5392499,0.875999996 C28.3057499,1.58774999 28.2509999,2.51849999 28.2509999,3.55874998 L28.2509999,5.96774997 C28.2509999,6.67949997 28.5794999,7.00799997 28.8532499,7.39124996 C28.9627499,7.55549996 28.9627499,7.71974996 28.8532499,7.82924996 C28.5247499,8.10299996 27.9224999,8.59574996 27.5939999,8.86949996 L27.5939999,8.86949996 Z" id="Shape"></path>
                    <path d="M5.09174997,5.09174997 C5.09174997,5.69399997 5.09174997,6.18674997 4.81799998,6.73424997 C4.54424998,7.17224996 4.16099998,7.44599996 3.72299998,7.44599996 C3.12074998,7.44599996 2.73749999,7.00799997 2.73749999,6.29624997 C2.73749999,4.98224998 3.94199998,4.70849998 5.09174997,4.70849998 L5.09174997,5.09174997 Z M6.67949997,8.86949996 C6.56999997,8.97899996 6.40574997,8.97899996 6.29624997,8.92424996 C5.74874997,8.48624996 5.69399997,8.32199996 5.36549997,7.88399996 C4.48949998,8.75999996 3.88724998,9.03374996 2.73749999,9.03374996 C1.36874999,9.03374996 0.328499998,8.21249996 0.328499998,6.62474997 C0.328499998,5.36549997 1.04024999,4.48949998 2.02574999,4.10624998 C2.90174999,3.72299998 4.10624998,3.66824998 5.03699997,3.55874998 L5.03699997,3.28499998 C5.03699997,2.90174999 5.09174997,2.46374999 4.81799998,2.13524999 C4.59899998,1.86149999 4.27049998,1.75199999 3.94199998,1.75199999 C3.33974998,1.75199999 2.79224999,2.08049999 2.68274999,2.68274999 C2.62799999,2.84699999 2.57324999,2.95649999 2.40899999,2.95649999 L0.875999996,2.79224999 C0.766499996,2.73749999 0.602249997,2.68274999 0.656999997,2.46374999 C0.985499995,0.656999997 2.68274999,0.109499999 4.21574998,0.109499999 C4.98224998,0.109499999 6.02249997,0.328499998 6.62474997,0.875999996 C7.39124996,1.58774999 7.33649996,2.51849999 7.33649996,3.55874998 L7.33649996,5.96774997 C7.33649996,6.67949997 7.66499996,7.00799997 7.93874996,7.39124996 C8.04824996,7.55549996 8.04824996,7.71974996 7.93874996,7.82924996 C7.61024996,8.10299996 7.00799997,8.59574996 6.67949997,8.86949996 L6.67949997,8.86949996 Z" id="Shape"></path>
                </g>
            </g>
        </g>
    </g>
</svg>