<?xml version="1.0" encoding="UTF-8" standalone="no"?>
<svg width="143px" height="60px" viewBox="0 0 143 60" version="1.1" xmlns="http://www.w3.org/2000/svg" xmlns:xlink="http://www.w3.org/1999/xlink">
    <!-- Generator: Sketch 3.6.1 (26313) - http://www.bohemiancoding.com/sketch -->
    <title>DE</title>
    <desc>Created with Sketch.</desc>
    <defs>
        <path id="path-1" d="M0,57.896648 L140.889327,57.896648 L140.889327,0.172114525 L0,0.172114525 L0,57.896648 Z"></path>
    </defs>
    <g id="Page-1" stroke="none" stroke-width="1" fill="none" fill-rule="evenodd">
        <g id="DE">
            <g id="DE-Logo" transform="translate(1.000000, 1.000000)">
                <path d="M120.049172,22.6548008 L99.209136,9.63238743 L99.209136,13.1499042 L120.049172,26.1727115 L140.889603,13.1499042 L140.889603,9.63238743 L120.049172,22.6548008 Z" id="Fill-1" fill="#F9991C"></path>
                <g id="Group-43" transform="translate(0.000000, 0.221740)">
                    <path d="M128.222525,14.0973612 L131.291047,12.1796824 L131.29341,12.1796824 C128.872779,8.54558464 124.737698,6.15094777 120.042949,6.15094777 C115.352927,6.15094777 111.220997,8.54164609 108.799578,12.1706237 L108.818483,12.172593 C108.981933,12.0237159 109.148139,11.8775958 109.319072,11.7354142 C115.167422,6.88785 123.609304,7.95204553 128.222525,14.0973612 L128.222525,14.0973612 Z" id="Fill-2" fill="#F9991C"></path>
                    <path d="M113.889835,15.3201226 C114.991841,14.5465919 116.267143,14.1019299 117.628699,14.1019299 C119.868157,14.1019299 121.877997,15.3004299 123.257277,17.2007791 L126.217095,15.3508433 L126.218671,15.3508433 C124.857903,13.4040193 122.599539,12.1295053 120.043028,12.1295053 C117.500302,12.1295053 115.253361,13.3902344 113.889835,15.3201226" id="Fill-4" fill="#F9991C"></path>
                    <path id="Fill-6" fill="#F9991C" d="M136.366799,9.01222374 L136.366299,9.01222374 L136.366799,9.01272374 L136.366799,9.01222374 Z"></path>
                    <path d="M105.956971,6.87800363 C114.53749,0.0855846369 126.680426,1.90558743 133.147521,10.9248612 L133.190451,10.9910288 L136.366496,9.01230251 C132.887577,3.68935559 126.876172,0.172232682 120.043186,0.172232682 C113.305513,0.172232682 107.237786,3.65509022 103.727359,9.00088073 C104.372099,8.32187514 105.207859,7.47114888 105.956971,6.87800363" id="Fill-8" fill="#F9991C"></path>
                    <path d="M2.18479106,49.8733148 L5.51207598,49.8733148 L5.51207598,49.2116388 L2.18479106,49.2116388 L2.18479106,46.9808455 L5.83346145,46.9808455 L5.83346145,46.3286221 L1.45694749,46.3286221 L1.45694749,53.0493595 L5.89017654,53.0493595 L5.89017654,52.3880774 L2.18479106,52.3880774 L2.18479106,49.8733148 Z" id="Fill-10" fill="#2D2D2D"></path>
                    <mask id="mask-2" fill="white">
                        <use xlink:href="#path-1"></use>
                    </mask>
                    <g id="Clip-13"></g>
                    <path d="M6.88261173,53.0494777 L7.58209777,53.0494777 L7.58209777,48.2286955 L6.88261173,48.2286955 L6.88261173,53.0494777 Z" id="Fill-12" fill="#2D2D2D" mask="url(#mask-2)"></path>
                    <path d="M6.82589665,47.170014 L7.62936034,47.170014 L7.62936034,46.3192877 L6.82589665,46.3192877 L6.82589665,47.170014 Z" id="Fill-14" fill="#2D2D2D" mask="url(#mask-2)"></path>
                    <path d="M11.2307682,48.0871441 C10.903081,48.0871441 10.5942989,48.1623704 10.3044218,48.3136106 C10.0145447,48.4652447 9.77153631,48.6952559 9.57657821,49.0036441 L9.31190782,48.228538 L8.90544972,48.228538 L8.90544972,53.049714 L9.59548324,53.049714 L9.59548324,50.6865855 C9.59548324,50.4156134 9.62226536,50.1603955 9.67582961,49.920538 C9.729,49.6814682 9.8160419,49.4735128 9.93577374,49.2966721 C10.0555056,49.120619 10.2114721,48.9804067 10.4036732,48.8764291 C10.5958743,48.7720575 10.8274609,48.7200687 11.098433,48.7200687 C11.4765335,48.7200687 11.7506564,48.8208955 11.9208017,49.022943 C12.0909469,49.2245966 12.1760196,49.5396804 12.1760196,49.9678006 L12.1760196,53.049714 L12.8755056,53.049714 L12.8755056,49.8543704 C12.8755056,49.2935212 12.7384441,48.8590994 12.4643212,48.5503173 C12.1901983,48.2415352 11.779014,48.0871441 11.2307682,48.0871441" id="Fill-15" fill="#2D2D2D" mask="url(#mask-2)"></path>
                    <path d="M59.3424101,50.4783545 C59.3424101,50.7938321 59.3093263,51.0785891 59.2431587,51.333807 C59.1769911,51.5890249 59.0745888,51.8064327 58.935952,51.9860304 C58.7973151,52.1656282 58.6177173,52.3026897 58.3975525,52.3972148 C58.1766,52.4917399 57.9087788,52.5390025 57.5940888,52.5390025 C57.2849128,52.5390025 57.018667,52.4917399 56.7949575,52.3972148 C56.571248,52.3026897 56.3884994,52.1656282 56.2467117,51.9860304 C56.104924,51.8064327 56.0013402,51.5890249 55.9347788,51.333807 C55.8686112,51.0785891 55.8355274,50.7938321 55.8355274,50.4783545 L55.8355274,46.3287008 L55.1076838,46.3287008 L55.1076838,50.4594494 C55.1076838,51.3479858 55.3172145,52.0258098 55.736276,52.4917399 C56.1553374,52.9584578 56.7744771,53.1916198 57.5940888,53.1916198 C58.4066112,53.1916198 59.0226,52.9584578 59.4416615,52.4917399 C59.8607229,52.0258098 60.0702536,51.3515304 60.0702536,50.4692958 L60.0702536,46.3287008 L59.3424101,46.3287008 L59.3424101,50.4783545 Z" id="Fill-16" fill="#2D2D2D" mask="url(#mask-2)"></path>
                    <path d="M63.6901726,48.0871441 C63.3624855,48.0871441 63.0537034,48.1623704 62.7638263,48.3136106 C62.4739492,48.4652447 62.2313346,48.6952559 62.0363765,49.0036441 L61.7713123,48.228538 L61.365248,48.228538 L61.365248,53.049714 L62.0552816,53.049714 L62.0552816,50.6865855 C62.0552816,50.4156134 62.0816698,50.1603955 62.1356279,49.920538 C62.1887983,49.6814682 62.2754464,49.4735128 62.3951782,49.2966721 C62.5149101,49.120619 62.6708765,48.9804067 62.8630777,48.8764291 C63.0556726,48.7720575 63.2872592,48.7200687 63.5578374,48.7200687 C63.935938,48.7200687 64.2100609,48.8208955 64.3802061,49.022943 C64.5507453,49.2245966 64.635424,49.5396804 64.635424,49.9678006 L64.635424,53.049714 L65.3349101,53.049714 L65.3349101,49.8543704 C65.3349101,49.2935212 65.1978486,48.8590994 64.9237257,48.5503173 C64.6496028,48.2415352 64.2388123,48.0871441 63.6901726,48.0871441" id="Fill-17" fill="#2D2D2D" mask="url(#mask-2)"></path>
                    <path d="M68.5958698,52.5014682 C68.4824397,52.5140715 68.3564061,52.5203732 68.2177693,52.5203732 C67.9594006,52.5203732 67.7813782,52.4443592 67.6837022,52.2935128 C67.5860263,52.1422726 67.5371883,51.940619 67.5371883,51.688552 L67.5371883,48.8051413 L68.8983503,48.8051413 L68.8983503,48.228538 L67.5371883,48.228538 L67.5371883,46.8110547 L66.8377022,47.1604039 L66.8377022,48.228538 L65.9964285,48.228538 L65.9964285,48.8051413 L66.8377022,48.8051413 L66.8377022,51.5845743 C66.8377022,51.8114346 66.8581827,52.0189961 66.8991436,52.2084402 C66.9401045,52.3970966 67.0094229,52.5609402 67.1070989,52.6999709 C67.2047749,52.838214 67.3355346,52.9457363 67.4993782,53.0209626 C67.6632218,53.0969765 67.8711771,53.1343927 68.1232441,53.1343927 C68.2996911,53.1343927 68.4588084,53.120214 68.6005961,53.0922503 C68.7423838,53.0638927 68.8762944,53.0339598 69.0023279,53.0020575 L68.9361603,52.4353006 C68.8227302,52.4668089 68.7093,52.4888648 68.5958698,52.5014682" id="Fill-18" fill="#2D2D2D" mask="url(#mask-2)"></path>
                    <path d="M70.1743609,50.2610254 C70.1991737,49.782098 70.3397799,49.3949388 70.5949978,49.0983662 C70.8502156,48.8021874 71.2046849,48.654098 71.6587994,48.654098 C71.8978693,48.654098 72.1058246,48.6950589 72.2826654,48.7769807 C72.4587184,48.8589025 72.603657,48.9727265 72.7170872,49.1172712 C72.8305173,49.2622098 72.9171654,49.432355 72.9770313,49.627707 C73.0368972,49.8234528 73.0668302,50.0341651 73.0668302,50.2610254 L70.1743609,50.2610254 Z M73.2464279,48.7769807 C73.069981,48.5627237 72.8494223,48.3941539 72.584752,48.2712712 C72.3200816,48.1483885 72.0112994,48.0869472 71.6587994,48.0869472 C71.3244168,48.0869472 71.0219363,48.1503578 70.7509642,48.2759975 C70.4799922,48.402031 70.249981,48.5788718 70.0609307,48.8053383 C69.8718804,49.0321986 69.7253665,49.3047461 69.6213888,49.6229807 C69.5174112,49.9412154 69.4654223,50.289383 69.4654223,50.6674835 C69.4654223,51.0329807 69.5142603,51.3701204 69.6119363,51.6789025 C69.7096123,51.9876846 69.8533693,52.2543243 70.0420257,52.4776399 C70.2314698,52.7013494 70.4626626,52.8746455 70.7367855,52.9975282 C71.0109084,53.1204109 71.3244168,53.1818522 71.6773106,53.1818522 C72.2192547,53.1818522 72.6682492,53.0463662 73.0242939,52.7753941 C73.3803385,52.5044221 73.5961709,52.1361679 73.6717911,51.66945 L72.9912101,51.66945 C72.9218916,51.9530254 72.7816793,52.1798858 72.5705732,52.350031 C72.359467,52.5201763 72.0617128,52.6052489 71.6773106,52.6052489 C71.4315453,52.6052489 71.2157128,52.5579863 71.0298134,52.4634612 C70.843914,52.3693299 70.6879475,52.2397517 70.561914,52.0759081 C70.4358804,51.9120645 70.3397799,51.7230142 70.2736123,51.5087573 C70.2074447,51.2945003 70.1712101,51.0644891 70.1653022,50.8187237 L73.7568637,50.8187237 C73.7568637,50.755707 73.7584391,50.6946595 73.7615899,50.6343997 C73.7647408,50.5745338 73.7663162,50.5162433 73.7663162,50.4595282 C73.7663162,50.1318411 73.7237799,49.8234528 73.6387073,49.5331818 C73.5536346,49.2433047 73.4228749,48.9912377 73.2464279,48.7769807 L73.2464279,48.7769807 Z" id="Fill-19" fill="#2D2D2D" mask="url(#mask-2)"></path>
                    <path d="M76.8856458,48.1532723 C76.5827715,48.1532723 76.3011654,48.2284986 76.0396458,48.3797388 C75.7777324,48.5313729 75.5717464,48.7578394 75.4205061,49.0607137 L75.1369307,48.2284986 L74.7493777,48.2284986 L74.7493777,53.0496746 L75.4394112,53.0496746 L75.4394112,50.5916271 C75.4394112,50.3525573 75.4661933,50.1241215 75.5197575,49.9063198 C75.5733218,49.688912 75.656819,49.5002556 75.7702492,49.3395628 C75.8836793,49.1788701 76.0301933,49.0508673 76.2097911,48.956736 C76.3893888,48.8622109 76.6052212,48.8149483 76.8572883,48.8149483 C76.9266067,48.8149483 76.9939559,48.8177053 77.0601235,48.8244008 C77.1266849,48.8307025 77.1940341,48.840155 77.2637464,48.8523645 C77.2763497,48.7389344 77.2858022,48.6274735 77.2921039,48.5171941 C77.2984056,48.4069148 77.3074642,48.2982109 77.3204615,48.1910824 C77.2448413,48.1780852 77.1723721,48.1690265 77.1030536,48.162331 C77.0337352,48.1564232 76.9608721,48.1532723 76.8856458,48.1532723" id="Fill-20" fill="#2D2D2D" mask="url(#mask-2)"></path>
                    <path d="M80.3449508,48.0871441 C80.0172637,48.0871441 79.7084816,48.1623704 79.4186045,48.3136106 C79.1287274,48.4652447 78.8861128,48.6952559 78.6911547,49.0036441 L78.4260905,48.228538 L78.0200263,48.228538 L78.0200263,53.049714 L78.7100598,53.049714 L78.7100598,50.6865855 C78.7100598,50.4156134 78.736448,50.1603955 78.7904061,49.920538 C78.8435765,49.6814682 78.9302246,49.4735128 79.0499564,49.2966721 C79.1696883,49.120619 79.3256547,48.9804067 79.5178559,48.8764291 C79.7104508,48.7720575 79.9420374,48.7200687 80.2126156,48.7200687 C80.5907162,48.7200687 80.8648391,48.8208955 81.0349844,49.022943 C81.2055235,49.2245966 81.2902022,49.5396804 81.2902022,49.9678006 L81.2902022,53.049714 L81.9900821,53.049714 L81.9900821,49.8543704 C81.9900821,49.2935212 81.8526268,48.8590994 81.5788978,48.5503173 C81.3047749,48.2415352 80.8935905,48.0871441 80.3449508,48.0871441" id="Fill-21" fill="#2D2D2D" mask="url(#mask-2)"></path>
                    <path d="M83.6627439,50.2610254 C83.6875567,49.782098 83.8281628,49.3949388 84.0833807,49.0983662 C84.3385986,48.8021874 84.6930679,48.654098 85.1471824,48.654098 C85.3862522,48.654098 85.5942075,48.6950589 85.7710483,48.7769807 C85.9471014,48.8589025 86.0920399,48.9727265 86.2054701,49.1172712 C86.3189003,49.2622098 86.4055483,49.432355 86.4654142,49.627707 C86.5252802,49.8234528 86.5552131,50.0341651 86.5552131,50.2610254 L83.6627439,50.2610254 Z M86.7348109,48.7769807 C86.558364,48.5627237 86.3378053,48.3941539 86.0731349,48.2712712 C85.8084645,48.1483885 85.4996824,48.0869472 85.1471824,48.0869472 C84.8127997,48.0869472 84.5103193,48.1503578 84.2393472,48.2759975 C83.9683751,48.402031 83.738364,48.5788718 83.5493137,48.8053383 C83.3602634,49.0321986 83.2137494,49.3047461 83.1097718,49.6229807 C83.0057941,49.9412154 82.9538053,50.289383 82.9538053,50.6674835 C82.9538053,51.0329807 83.0026433,51.3701204 83.1003193,51.6789025 C83.1979953,51.9876846 83.3417522,52.2543243 83.5304087,52.4776399 C83.7198528,52.7013494 83.9510455,52.8746455 84.2251684,52.9975282 C84.4992913,53.1204109 84.8127997,53.1818522 85.1656936,53.1818522 C85.7076377,53.1818522 86.1566321,53.0463662 86.5126768,52.7753941 C86.8687215,52.5044221 87.0845539,52.1361679 87.160174,51.66945 L86.479593,51.66945 C86.4102746,51.9530254 86.2700623,52.1798858 86.0589561,52.350031 C85.84785,52.5201763 85.5500958,52.6052489 85.1656936,52.6052489 C84.9199282,52.6052489 84.7040958,52.5579863 84.5181964,52.4634612 C84.3322969,52.3693299 84.1763304,52.2397517 84.0502969,52.0759081 C83.9242634,51.9120645 83.8281628,51.7230142 83.7619953,51.5087573 C83.6958277,51.2945003 83.659593,51.0644891 83.6536852,50.8187237 L87.2452466,50.8187237 C87.2452466,50.755707 87.2468221,50.6946595 87.2499729,50.6343997 C87.2531237,50.5745338 87.2546992,50.5162433 87.2546992,50.4595282 C87.2546992,50.1318411 87.2121628,49.8234528 87.1270902,49.5331818 C87.0420176,49.2433047 86.9112578,48.9912377 86.7348109,48.7769807 L86.7348109,48.7769807 Z" id="Fill-22" fill="#2D2D2D" mask="url(#mask-2)"></path>
                    <path d="M90.5536659,48.0871441 C90.2322804,48.0871441 89.9282246,48.1623704 89.6414983,48.3136106 C89.3543782,48.4652447 89.1168838,48.6917112 88.9278335,48.9945855 L88.9278335,46.2624151 L88.2378,46.2624151 L88.2378,53.049714 L88.9278335,53.049714 L88.9278335,50.6676804 C88.9278335,50.4093117 88.9542218,50.1619709 89.0081799,49.9256581 C89.0617441,49.6889514 89.1468168,49.4813899 89.2633978,49.3017922 C89.3799788,49.1221944 89.533976,48.9788313 89.7261771,48.8713089 C89.9187721,48.7645743 90.1531156,48.7110101 90.4307832,48.7110101 C90.8084899,48.7110101 91.0830067,48.8134123 91.2527581,49.0178229 C91.4232972,49.2230212 91.5083698,49.5396804 91.5083698,49.9678006 L91.5083698,53.049714 L92.2078559,53.049714 L92.2078559,49.8543704 C92.2078559,49.3002168 92.0707944,48.8665827 91.7966715,48.5546497 C91.5225486,48.2431106 91.1078196,48.0871441 90.5536659,48.0871441" id="Fill-23" fill="#2D2D2D" mask="url(#mask-2)"></path>
                    <path d="M98.6445846,48.0871441 C98.285783,48.0871441 97.9718807,48.1706413 97.7040595,48.3376358 C97.4366321,48.5046302 97.2141042,48.7358229 97.0380511,49.0320017 C96.9368304,48.7358229 96.7714115,48.5046302 96.5414003,48.3376358 C96.3113891,48.1706413 96.0041824,48.0871441 95.6197802,48.0871441 C95.3050902,48.0871441 95.0211209,48.1670966 94.7690539,48.3277894 C94.5173807,48.488876 94.3031237,48.7110101 94.126283,48.9945855 L93.8521601,48.228538 L93.4460958,48.228538 L93.4460958,53.049714 L94.145188,53.049714 L94.145188,50.384105 C94.145188,50.1257363 94.1833919,49.8925743 94.2586182,49.684619 C94.3346321,49.4762698 94.4338835,49.3002168 94.5563723,49.1552782 C94.6796489,49.0103397 94.8226182,48.8984849 94.9868556,48.8193201 C95.1503053,48.740943 95.3208444,48.7015575 95.4972913,48.7015575 C95.837188,48.7015575 96.0845288,48.7992335 96.2393137,48.9945855 C96.3933109,49.1899374 96.4705064,49.4951749 96.4705064,49.9114793 L96.4705064,53.049714 L97.1605399,53.049714 L97.1605399,50.1663034 C97.1605399,49.9587419 97.19835,49.7649654 97.274364,49.5853676 C97.3499841,49.4057698 97.450417,49.2494095 97.5764506,49.1170743 C97.7024841,48.9847391 97.8478165,48.8827307 98.0116601,48.8102615 C98.1755036,48.7377922 98.3421042,48.7015575 98.5122494,48.7015575 C98.8588416,48.7015575 99.1081517,48.7960827 99.2593919,48.9847391 C99.4102383,49.1741832 99.4862522,49.4829654 99.4862522,49.9114793 L99.4862522,53.049714 L100.176286,53.049714 L100.176286,49.7692978 C100.176286,49.2277475 100.048283,48.8118369 99.7930651,48.5219598 C99.5382411,48.2320827 99.1554142,48.0871441 98.6445846,48.0871441" id="Fill-24" fill="#2D2D2D" mask="url(#mask-2)"></path>
                    <path d="M101.849302,50.2610254 C101.874115,49.782098 102.014721,49.3949388 102.269939,49.0983662 C102.525157,48.8021874 102.879626,48.654098 103.333741,48.654098 C103.57281,48.654098 103.780766,48.6950589 103.957606,48.7769807 C104.133659,48.8589025 104.278598,48.9727265 104.392028,49.1172712 C104.505458,49.2622098 104.592106,49.432355 104.651972,49.627707 C104.711838,49.8234528 104.741771,50.0341651 104.741771,50.2610254 L101.849302,50.2610254 Z M104.921369,48.7769807 C104.744922,48.5627237 104.524363,48.3941539 104.259693,48.2712712 C103.995023,48.1483885 103.686241,48.0869472 103.333741,48.0869472 C102.999358,48.0869472 102.696877,48.1503578 102.425905,48.2759975 C102.154933,48.402031 101.924922,48.5788718 101.735872,48.8053383 C101.546822,49.0321986 101.400308,49.3047461 101.29633,49.6229807 C101.192352,49.9412154 101.140363,50.289383 101.140363,50.6674835 C101.140363,51.0329807 101.189201,51.3701204 101.286877,51.6789025 C101.384553,51.9876846 101.52831,52.2543243 101.716967,52.4776399 C101.906411,52.7013494 102.137604,52.8746455 102.411727,52.9975282 C102.685849,53.1204109 102.999358,53.1818522 103.352252,53.1818522 C103.894196,53.1818522 104.34319,53.0463662 104.699235,52.7753941 C105.05528,52.5044221 105.271112,52.1361679 105.346732,51.66945 L104.666151,51.66945 C104.596833,51.9530254 104.45662,52.1798858 104.245514,52.350031 C104.034408,52.5201763 103.736654,52.6052489 103.352252,52.6052489 C103.106486,52.6052489 102.890654,52.5579863 102.704754,52.4634612 C102.518855,52.3693299 102.362889,52.2397517 102.236855,52.0759081 C102.110822,51.9120645 102.014721,51.7230142 101.948553,51.5087573 C101.882386,51.2945003 101.846151,51.0644891 101.840243,50.8187237 L105.431805,50.8187237 C105.431805,50.755707 105.43338,50.6946595 105.436531,50.6343997 C105.439682,50.5745338 105.441257,50.5162433 105.441257,50.4595282 C105.441257,50.1318411 105.398721,49.8234528 105.313648,49.5331818 C105.228576,49.2433047 105.097816,48.9912377 104.921369,48.7769807 L104.921369,48.7769807 Z" id="Fill-25" fill="#2D2D2D" mask="url(#mask-2)"></path>
                    <path d="M109.983308,48.5501992 C109.709185,48.241417 109.298001,48.087026 108.749361,48.087026 C108.421674,48.087026 108.112892,48.1626461 107.823409,48.3134925 C107.533138,48.4651265 107.290523,48.6951377 107.095565,49.003526 L106.830501,48.2288137 L106.424437,48.2288137 L106.424437,53.0495958 L107.11447,53.0495958 L107.11447,50.6864673 C107.11447,50.4154953 107.140859,50.1602774 107.194817,49.9204198 C107.248381,49.68135 107.334635,49.4733947 107.454367,49.2969478 C107.574099,49.1205008 107.730065,48.9802885 107.92266,48.8763109 C108.114861,48.7719394 108.346448,48.7203444 108.617026,48.7203444 C108.995127,48.7203444 109.269644,48.8207774 109.439395,49.0228249 C109.609934,49.2244785 109.695007,49.5395623 109.695007,49.9680763 L109.695007,53.0495958 L110.394493,53.0495958 L110.394493,49.8546461 C110.394493,49.2937969 110.257037,48.8589813 109.983308,48.5501992" id="Fill-26" fill="#2D2D2D" mask="url(#mask-2)"></path>
                    <path d="M37.981107,55.0612877 C35.5825316,56.0514385 32.975607,56.5291844 30.6046014,56.5291844 C27.0898416,56.5291844 23.6877243,55.5918101 20.9338919,54.0356899 C20.6948221,53.8966592 20.5167997,54.1380922 20.7156964,54.3145391 C23.2659059,56.5520279 26.6384841,57.896648 30.3801042,57.896648 C33.0512271,57.896648 36.1512578,57.0825503 38.2918584,55.5457291 C38.6475092,55.2916927 38.3418779,54.9135922 37.981107,55.0612877" id="Fill-27" fill="#2D2D2D" mask="url(#mask-2)"></path>
                    <path d="M36.6318394,54.1972492 C36.4423953,54.3268274 36.4754791,54.5024866 36.6830405,54.4784615 C37.3738617,54.3989028 38.9091075,54.2200927 39.1836243,54.5592017 C39.4577472,54.8994922 38.8768115,56.3012212 38.6219874,56.9302073 C38.5404595,57.1176821 38.7090293,57.1948777 38.8854763,57.0515145 C40.0339567,56.1188665 40.3293478,54.1649531 40.0961858,53.8813777 C39.8602668,53.6037101 37.8559399,53.3595201 36.6318394,54.1972492" id="Fill-28" fill="#2D2D2D" mask="url(#mask-2)"></path>
                    <path d="M40.8198545,51.8249439 C40.1660556,51.4669299 39.4051282,51.3633461 38.6827986,51.3794941 L40.6225332,48.6863154 C40.8029187,48.4456701 40.9041394,48.2932483 40.9049271,48.174698 L40.9049271,47.480726 C40.9049271,47.3594187 40.8123712,47.2755277 40.688307,47.2755277 L36.9431422,47.2755277 C36.8285304,47.2755277 36.7328237,47.3578433 36.7328237,47.4819075 L36.7328237,48.2932483 C36.7328237,48.4145556 36.8285304,48.4984466 36.9494439,48.4984466 L38.9065081,48.4984466 L36.6579913,51.6307735 C36.5221115,51.8328209 36.5177791,52.0569243 36.5177791,52.1896534 L36.5177791,53.0139913 C36.5177791,53.1325416 36.6560221,53.2699969 36.7840249,53.1998908 C38.0601142,52.5441226 39.5886645,52.6059578 40.7430528,53.1951645 C40.8844466,53.2652707 41.0187511,53.1278154 41.0187511,53.0096589 L41.0187511,52.1408154 C41.0065416,52.0258098 40.9687316,51.9045025 40.8198545,51.8249439" id="Fill-29" fill="#2D2D2D" mask="url(#mask-2)"></path>
                    <path d="M21.9280994,53.3649553 L23.0706721,53.3649553 C23.1904039,53.3649553 23.2888676,53.2747626 23.2888676,53.1609385 L23.2888676,50.1475559 C23.2888676,49.4902123 23.2565715,48.5804078 24.0765771,48.5804078 C24.8855547,48.5804078 24.7803955,49.5146313 24.7803955,50.1475559 L24.7803955,53.1609385 C24.7803955,53.2712179 24.8705883,53.3582598 24.982443,53.3649553 L26.1226525,53.3649553 C26.2447475,53.3649553 26.3420296,53.2747626 26.3420296,53.1609385 L26.3420296,50.1475559 C26.3420296,49.824595 26.3310017,49.3480307 26.449552,49.0597291 C26.5657391,48.7718212 26.8528592,48.5926173 27.1281637,48.5926173 C27.4593955,48.5926173 27.7146134,48.7009274 27.8004737,49.0837542 C27.8516749,49.3110084 27.8311944,49.9088799 27.8311944,50.1475559 L27.8319821,53.1609385 C27.8319821,53.2712179 27.9209933,53.3582598 28.035605,53.3649553 L29.1738453,53.3649553 C29.2943648,53.3649553 29.3940101,53.2747626 29.3940101,53.1609385 L29.3955855,49.5741034 C29.3955855,48.9652039 29.4704179,48.2696564 29.1092531,47.7911229 C28.7898369,47.3614274 28.2671916,47.1711955 27.7874765,47.1711955 C27.1175296,47.1711955 26.4889374,47.5043966 26.2144207,48.222 C25.8957922,47.5043966 25.4483732,47.1711955 24.7343145,47.1711955 C24.0308899,47.1711955 23.5125771,47.5043966 23.2349095,48.222 L23.2148229,48.222 L23.2148229,47.4819469 C23.206552,47.3767877 23.1175408,47.2944721 23.0045045,47.2877765 L21.9462168,47.2877765 C21.8256972,47.2877765 21.726052,47.381514 21.726052,47.4949441 L21.726052,53.1782682 C21.7355045,53.2775196 21.8201832,53.3582598 21.9280994,53.3649553" id="Fill-30" fill="#2D2D2D" mask="url(#mask-2)"></path>
                    <path d="M44.1310307,52.3135601 C43.238162,52.3135601 43.2468268,50.8287277 43.2468268,50.1355433 C43.2468268,49.4431466 43.3007849,48.3312947 44.1416648,48.3312947 C44.504405,48.3312947 44.7584413,48.484898 44.8880196,48.8803282 C45.0349274,49.3360182 45.055014,49.908683 45.055014,50.3887919 C45.055014,51.1186047 45.0124777,52.3135601 44.1310307,52.3135601 M44.1310307,47.1713925 C42.4819609,47.1713925 41.567824,48.5455517 41.567824,50.3139595 C41.567824,52.0729148 42.470933,53.4848841 44.1310307,53.4848841 C45.7261425,53.4848841 46.7391369,52.1087556 46.7391369,50.3773701 C46.7391369,48.5806047 45.8218492,47.1713925 44.1310307,47.1713925" id="Fill-31" fill="#2D2D2D" mask="url(#mask-2)"></path>
                    <path d="M50.6420799,47.1712349 C49.8543704,47.1712349 49.4065575,47.5414584 49.0879291,48.3169584 L49.066267,48.3169584 L49.066267,47.4496902 C49.0461804,47.3614668 48.9638648,47.2933299 48.8626441,47.2878159 L47.808295,47.2878159 C47.6948648,47.2878159 47.5979765,47.3728885 47.5889179,47.4752908 L47.5908872,53.1605841 C47.5908872,53.2712573 47.6814737,53.3582992 47.7952978,53.3649947 L48.9295994,53.3649947 C49.052876,53.3649947 49.150552,53.274802 49.1540966,53.1605841 L49.1540966,50.1003327 C49.1540966,49.7175059 49.1730017,49.3705198 49.3325128,49.0255031 C49.4620911,48.7470478 49.7180966,48.5682377 49.993795,48.5682377 C50.7787475,48.5682377 50.7054905,49.4768606 50.7054905,50.1003327 L50.7054905,53.1877601 C50.7180939,53.2842545 50.8031665,53.3582992 50.9083257,53.3649947 L52.0520799,53.3649947 C52.1631469,53.3649947 52.2549151,53.2874053 52.2694877,53.1877601 L52.2694877,49.6115589 C52.2694877,49.0597684 52.2694877,48.2949025 51.970552,47.8384249 C51.6515296,47.3512265 51.1521218,47.1712349 50.6420799,47.1712349" id="Fill-32" fill="#2D2D2D" mask="url(#mask-2)"></path>
                    <path d="M33.7459869,50.6522807 C33.7459869,51.082764 33.7562271,51.4419595 33.5336992,51.8263617 C33.352526,52.1371131 33.0646182,52.3297081 32.745202,52.3297081 C32.3076293,52.3297081 32.053593,52.0055656 32.053593,51.5258506 C32.053593,50.5821746 32.9216489,50.4108478 33.7459869,50.4108478 L33.7459869,50.6522807 Z M33.7459869,49.5238869 C33.0847047,49.5955684 32.2229506,49.6451941 31.6022355,49.9063198 C30.8885707,50.2060433 30.3895567,50.8180936 30.3895567,51.717264 C30.3895567,52.8681075 31.1363053,53.4431355 32.0941601,53.4431355 C32.9055008,53.4431355 33.3481936,53.2556606 33.9732411,52.6377025 C34.1808025,52.9287612 34.2481517,53.0705489 34.6246768,53.3769679 C34.7097494,53.4187165 34.8208165,53.4163534 34.8948612,53.349398 L34.8956489,53.3529427 C35.1256601,53.1568031 35.5388137,52.8074539 35.7731573,52.6176159 C35.8657131,52.5439651 35.8479897,52.4254148 35.776702,52.3230126 C35.5683528,52.0433757 35.3466126,51.8169092 35.3466126,51.2985964 L35.3466126,49.5727249 C35.3466126,48.8385796 35.397026,48.170602 34.8452355,47.6680433 C34.4076628,47.2607975 33.683364,47.1154651 33.1280288,47.1154651 C32.0421712,47.1154651 30.8330372,47.508926 30.5805763,48.8121913 C30.5522187,48.9476774 30.6558025,49.0221159 30.7503277,49.0422025 L31.8543025,49.1579958 C31.958674,49.1528757 32.031931,49.054412 32.053593,48.9531913 C32.1473304,48.5065601 32.5340958,48.2899399 32.9689115,48.2899399 C33.2028612,48.2899399 33.4710763,48.3742249 33.6077439,48.5790293 C33.7680427,48.8054958 33.7459869,49.1178226 33.7459869,49.3813115 L33.7459869,49.5238869 Z" id="Fill-33" fill="#2D2D2D" mask="url(#mask-2)"></path>
                    <path d="M18.8069975,50.6522807 C18.8069975,51.082764 18.8184193,51.4419595 18.5947098,51.8263617 C18.4127489,52.1371131 18.1256288,52.3297081 17.8054249,52.3297081 C17.3682461,52.3297081 17.1134221,52.0055656 17.1134221,51.5258506 C17.1134221,50.5821746 17.9814779,50.4108478 18.8069975,50.4108478 L18.8069975,50.6522807 Z M20.8357433,52.3230126 C20.6285757,52.0433757 20.4048662,51.8169092 20.4048662,51.2985964 L20.4048662,49.5727249 C20.4048662,48.8385796 20.459612,48.170602 19.9062461,47.6680433 C19.4686735,47.2607975 18.7443746,47.1154651 18.187464,47.1154651 C17.1039696,47.1154651 15.8936539,47.508926 15.6400115,48.8121913 C15.6124416,48.9476774 15.7176008,49.0221159 15.8113383,49.0422025 L16.9153131,49.1579958 C17.0188969,49.1528757 17.0929416,49.054412 17.1134221,48.9531913 C17.2091288,48.5065601 17.5951064,48.2899399 18.0279528,48.2899399 C18.2646595,48.2899399 18.5305115,48.3742249 18.6695422,48.5790293 C18.8286595,48.8054958 18.8069975,49.1178226 18.8069975,49.3813115 L18.8069975,49.5238869 C18.1465031,49.5955684 17.2847489,49.6451941 16.6652154,49.9063198 C15.9487936,50.2060433 15.4493858,50.8180936 15.4493858,51.717264 C15.4493858,52.8681075 16.1953466,53.4431355 17.154383,53.4431355 C17.9653299,53.4431355 18.4088103,53.2556606 19.0326763,52.6377025 C19.2402377,52.9287612 19.3091623,53.0705489 19.6872628,53.3769679 C19.7707601,53.4187165 19.8798578,53.4163534 19.9554779,53.349398 L19.9594165,53.3529427 C20.1850953,53.1568031 20.5998243,52.8074539 20.8314109,52.6176159 C20.9247545,52.5439651 20.9082126,52.4254148 20.8357433,52.3230126 L20.8357433,52.3230126 Z" id="Fill-34" fill="#2D2D2D" mask="url(#mask-2)"></path>
                    <path d="M18.9624913,33.1895883 L18.9624913,20.7693788 L23.0408573,20.7693788 L23.0408573,33.038348 C23.0408573,36.0170715 25.5028433,36.785876 26.9518349,36.785876 C30.0388684,36.785876 31.0491059,34.966267 31.0491059,33.9268844 L31.0491059,20.7693788 L35.1274718,20.7693788 L35.1274718,40.0485687 L32.7544969,40.0485687 L31.1971953,37.8981218 C30.0853433,39.2328955 28.2684913,40.4770827 25.5619215,40.4770827 C21.6690612,40.4770827 18.9624913,37.8610994 18.9624913,33.1895883" id="Fill-35" fill="#2D2D2D" mask="url(#mask-2)"></path>
                    <path d="M73.5490659,36.7724061 C71.0283955,36.7724061 69.2028788,35.5565765 69.2662894,32.9484704 L69.2655017,32.9480765 L69.2655017,27.6649089 C69.2655017,25.5609369 70.9059067,24.0182078 73.5853006,24.0182078 C75.4675324,24.0182078 77.3737894,25.3900039 77.3737894,27.6889341 L77.3737894,33.1016799 C77.3737894,35.4006101 75.4675324,36.7724061 73.5490659,36.7724061 L73.5490659,36.7724061 Z M65.2832363,13.8969285 L65.2832363,40.0350989 L67.5998899,40.0350989 L69.0839346,37.884652 C70.1697922,39.2194257 72.0161832,40.4797609 74.6951832,40.4797609 C78.2784737,40.4797609 81.355267,38.2552693 81.355267,33.3982525 L81.355267,27.3923615 C81.355267,22.5353447 78.3147084,20.3108531 74.5502447,20.3108531 C71.943714,20.3108531 70.1697922,21.4971436 69.2655017,22.6468056 L69.2655017,13.8969285 L65.2832363,13.8969285 Z" id="Fill-36" fill="#2D2D2D" mask="url(#mask-2)"></path>
                    <path d="M41.9206391,33.1154648 L41.9206391,27.7023251 C41.9206391,25.4037888 43.8268961,24.0319927 45.7091279,24.0319927 C48.3885218,24.0319927 50.0289268,25.5747218 50.0289268,27.6786939 L50.0289268,32.9618615 L50.0281391,32.9618615 C50.0915497,35.5699676 48.266033,36.7861911 45.7453626,36.7861911 C43.8268961,36.7861911 41.9206391,35.4140011 41.9206391,33.1154648 L41.9206391,33.1154648 Z M50.0289268,13.9103196 L50.0289268,22.6601966 C49.1242425,21.5109285 47.3507145,20.324638 44.7441838,20.324638 C40.9797201,20.324638 37.9391615,22.5491296 37.9391615,27.4057525 L37.9391615,33.4120374 C37.9391615,38.2690542 41.0159547,40.4935458 44.5992453,40.4935458 C47.2782453,40.4935458 49.1242425,39.2332106 50.2104939,37.898043 L51.6945385,40.0484899 L54.0111922,40.0484899 L54.0111922,13.9103196 L50.0289268,13.9103196 Z" id="Fill-37" fill="#2D2D2D" mask="url(#mask-2)"></path>
                    <path d="M84.122648,40.0487263 L88.201014,40.0487263 L88.201014,13.9105559 L84.122648,13.9105559 L84.122648,40.0487263 Z" id="Fill-38" fill="#2D2D2D" mask="url(#mask-2)"></path>
                    <path d="M57.6619106,40.0487263 L61.7402765,40.0487263 L61.7402765,20.7695363 L57.6619106,20.7695363 L57.6619106,40.0487263 Z" id="Fill-39" fill="#2D2D2D" mask="url(#mask-2)"></path>
                    <path d="M59.7010936,18.4459902 C60.9823031,18.4459902 62.020898,17.4073953 62.020898,16.1261858 C62.020898,14.8449763 60.9823031,13.8063813 59.7010936,13.8063813 C58.4198841,13.8063813 57.3812891,14.8449763 57.3812891,16.1261858 C57.3812891,17.4073953 58.4198841,18.4459902 59.7010936,18.4459902" id="Fill-40" fill="#2D2D2D" mask="url(#mask-2)"></path>
                    <path d="M95.2711006,27.4059494 C95.2711006,25.4039858 96.6425028,24.0317958 99.2746341,24.0317958 C101.907159,24.0317958 103.278955,25.4039858 103.278955,27.4059494 L103.278955,28.6292623 L95.2711006,28.6292623 L95.2711006,27.4059494 Z M99.4231173,36.7859941 C96.6425028,36.7859941 95.2711006,35.3401534 95.2711006,33.3377958 L95.2711006,31.7438656 L107.357321,31.7438656 L107.357321,27.4059494 C107.357321,22.9569662 104.242718,20.3244411 99.4231173,20.3244411 C94.4180112,20.3244411 91.1927346,23.1050556 91.1927346,27.4799941 L91.1927346,33.4118405 C91.1927346,37.8612176 94.4180112,40.4933489 99.4231173,40.4933489 C103.174978,40.4933489 105.866581,38.9833098 106.994975,36.4015919 L104.03555,34.573712 C102.983958,36.0510612 101.525908,36.7859941 99.4231173,36.7859941 L99.4231173,36.7859941 Z" id="Fill-41" fill="#2D2D2D" mask="url(#mask-2)"></path>
                    <path d="M12.0886232,33.8754075 C12.0571148,34.169617 12.051207,34.5433852 11.6388411,35.0577595 C11.0165506,35.9415696 9.46358128,36.7859941 7.61679637,36.7859941 C5.68848352,36.7859941 4.28005894,36.0077372 4.28005894,34.3759969 C4.28005894,32.0644634 8.03113156,31.5622986 10.3332126,31.471712 L12.0886232,31.471712 L12.0886232,33.8754075 Z M8.45491927,20.3244411 C4.49864832,20.3244411 1.93347235,21.9195528 0.936232123,24.3193098 L4.12291089,26.3023684 C5.45413994,24.1838237 6.72589693,24.0317958 8.45491927,24.0317958 C10.9389612,24.0317958 12.0886232,25.2184802 12.0886232,27.1093768 L12.0886232,28.6162651 L8.66957011,28.6213852 C6.17568184,28.6213852 3.93854748e-05,29.4693545 3.93854748e-05,34.8210528 C3.93854748e-05,38.6028461 2.85666788,40.4933489 6.34188855,40.4933489 C9.08548073,40.4933489 11.1248606,39.2330137 12.2367126,37.8982399 L13.7940142,40.0486869 L16.1669891,40.0486869 L16.1669891,26.8498265 C16.1669891,23.0680332 13.645531,20.3244411 8.45491927,20.3244411 L8.45491927,20.3244411 Z" id="Fill-42" fill="#2D2D2D" mask="url(#mask-2)"></path>
                </g>
            </g>
        </g>
    </g>
</svg>